# xmcd CD database file
#
# Track frame offsets:
#	182
#	17182
#	33022
#	50450
#	63792
#	77522
#	91377
#	101120
#	114950
#	123920
#	141760
#	152450
#	165042
#
# Disc length: 2469 seconds
#
# Revision: 3
# Processed by: cddbd v1.5.2PL0 Copyright (c) Steve Scherf et al.
# Submitted via: CDex 1.70beta2
#
DISCID=8c09a30d
DTITLE=Howlin' Wolf - The London Sessions
DYEAR=1971
DGENRE=Blues
TTITLE0=Rockin' Daddy
TTITLE1=I Ain't Superstitious
TTITLE2=Sittin' On Top Of The World
TTITLE3=Worried About My Baby
TTITLE4=What A Woman
TTITLE5=Poor Boy
TTITLE6=Built For Comfort
TTITLE7=Who's Been Talking
TTITLE8=The Red Rooster
TTITLE9=The Red Rooster
TTITLE10=Do The Do
TTITLE11=Highway 49
TTITLE12=Wang Dang Doodle
EXTD=With Eric Clapton, Steve Winwood, Bill Wyman, and Charlie Watts YEAR: 1971
EXTT0=
EXTT1=
EXTT2=
EXTT3=
EXTT4=
EXTT5=
EXTT6=
EXTT7=
EXTT8=
EXTT9=
EXTT10=
EXTT11=
EXTT12=
PLAYORDER=
